<svg version="1.0" xmlns="http://www.w3.org/2000/svg" width="1026.667" height="1025.333" viewBox="0 0 770 769"><path d="M366 54c-67.8 3.8-134.8 29.6-188.5 72.6-14.3 11.5-38.8 36-50 49.9C88 226 64.2 282.7 56.4 346c-2.1 16.5-2.4 55.6-.6 71.5 6 52.5 21.9 98.9 48.6 141.8 23.4 37.5 57.9 73.4 95.1 98.6 108.1 73.4 249.6 76 360.8 6.7 22.4-13.9 42.2-30.1 62.7-51.3 89.7-92.4 117.1-229.4 69.9-349.8-16.9-43.2-40.8-79.5-74.3-113.1-58.9-58.8-133-91.8-216.9-96.4-9.4-.5-18.3-.9-19.7-.8-1.4 0-8.6.4-16 .8zm30.5 267.5c11.7 2.1 24.4 8.6 32.7 16.9 8 7.9 12.7 15.5 16.4 26.1 2.4 6.9 2.8 9.6 2.8 19.5.1 18.8-5.3 31.9-18.4 45.1-19.7 19.7-48.7 24.4-73.6 11.9-10.2-5.2-17.9-12-24.3-21.6-25.4-37.9-4.1-89 40.8-97.9 8.7-1.7 13.9-1.7 23.6 0zm-115.6 93.2c6.4 22 20.5 42.3 39 56.4 8.6 6.5 26.5 15.3 36.6 17.9 46.4 12 93.7-6.3 119.7-46.5 5.5-8.5 11.5-22.1 13.8-31.3l1.1-4.2H661v3.1c0 8.3-5 34-9.7 50.4C628.8 538.2 572 603.6 497.9 637c-66.4 30-143.1 32.7-211.8 7.4-15.7-5.8-42.7-19.5-56.6-28.9-17.8-11.9-29.8-21.7-44.5-36.5-44.6-44.9-72.5-103.2-79.5-165.8l-.7-6.2h173.8l2.3 7.7z"/></svg>